<?xml version="1.0" encoding="UTF-8"?><svg id="Capa_1" xmlns="http://www.w3.org/2000/svg" viewBox="0 0 1060 1060"><rect width="1060" height="1060" rx="114.189" ry="114.189" fill="#9146ff"/><path d="M204.742,721.211l82.21-343.207h49.525c5.278,14.857,10.23,30.458,14.857,46.8,4.619,16.343,9.24,33.268,13.867,50.764,4.621,17.503,9.24,35.495,13.867,53.982,4.619,18.494,8.915,37.312,12.877,56.457l49.523-208.003h58.936l-82.213,343.207h-49.029c-2.314-14.857-4.952-30.953-7.922-48.287-2.975-17.335-6.61-35.656-10.897-54.972-4.296-19.314-9.084-39.45-14.362-60.421-5.286-20.962-11.067-42.505-17.335-64.629l-55.467,228.31h-58.438Z" fill="#262626"/><path d="M343.847,886.796l230.608-348.266-67.772-304.026h124.247l44.24,220.255c10.663-18.193,21.648-36.547,32.944-55.064,11.296-18.501,22.428-37.179,33.413-56.004,10.974-18.825,21.648-37.326,32.005-55.535,10.352-18.192,20.545-36.076,30.591-53.651h124.244c-15.061,24.473-31.222,49.74-48.474,75.771-17.267,26.046-34.517,52.564-51.769,79.536-17.267,26.988-34.828,53.975-52.711,80.949-17.883,26.988-35.297,53.343-52.241,79.065,12.546,47.695,23.373,91.303,32.474,130.837,9.09,39.531,16.619,76.092,22.592,109.656,5.956,33.575,10.19,65.741,12.705,96.479h-120.48c-1.884-23.84-4.706-47.371-8.474-70.594-3.762-23.209-8.632-48.946-14.588-77.184-5.971-28.238-13.649-61.798-23.062-100.713l-156.246,248.491h-124.247Z" fill="#bc92ff"/></svg>