<?xml version="1.0" encoding="UTF-8"?><svg id="Capa_1" xmlns="http://www.w3.org/2000/svg" viewBox="0 0 1900 720.499"><path d="M1328.666,637.575l225.405-340.408L1487.831,0h121.441l43.242,215.286c10.422-17.783,21.159-35.723,32.201-53.822,11.041-18.084,21.922-36.341,32.66-54.741,10.726-18.4,21.162-36.484,31.283-54.282,10.118-17.781,20.081-35.262,29.901-52.441h121.441c-14.721,23.921-30.517,48.618-47.381,74.062-16.877,25.458-33.738,51.378-50.601,77.742-16.877,26.379-34.042,52.758-51.522,79.122-17.48,26.379-34.501,52.14-51.06,77.281,12.261,46.619,22.843,89.242,31.739,127.884,8.885,38.642,16.244,74.379,22.083,107.182,5.822,32.82,9.96,64.258,12.418,94.302h-117.762c-1.841-23.302-4.6-46.302-8.28-69.002-3.68-22.683-8.44-47.839-14.262-75.44-5.836-27.601-13.339-60.407-22.539-98.443l-152.724,242.885h-121.444Z" fill="#bc92ff"/><path d="M156.614,473.544l80.355-335.462h48.408c5.159,14.522,9.999,29.771,14.522,45.744,4.516,15.973,9.032,32.516,13.554,49.617,4.516,17.109,9.032,34.694,13.554,52.766,4.516,18.077,8.714,36.469,12.587,55.182l48.406-203.309h57.605l-80.355,335.462h-47.924c-2.261-14.522-4.841-30.255-7.745-47.198-2.905-16.944-6.459-34.852-10.65-53.731-4.198-18.879-8.88-38.562-14.038-59.058-5.165-20.49-10.816-41.548-16.942-63.171l-54.217,223.158h-57.12Z" fill="#9146ff"/><path d="M439.793,473.544l80.355-335.462h161.197l-11.618,50.828h-101.656l-20.331,84.228h92.942l-12.102,48.89h-92.458l-24.203,100.688h111.337l-12.587,50.828h-170.877Z" fill="#9146ff"/><path d="M771.866,479.836c-17.109,0-32.115-3.071-45.018-9.197-12.912-6.126-22.752-15.249-29.529-27.349-6.777-12.103-10.165-26.699-10.165-43.809,0-5.485.401-11.451,1.209-17.911.802-6.452,1.854-13.071,3.146-19.846l54.217-223.642h60.509l-55.185,228.966c-1.294,4.841-2.178,9.197-2.662,13.071s-.726,7.425-.726,10.649c0,8.396,1.368,15.332,4.114,20.814,2.738,5.493,6.694,9.441,11.86,11.86,5.159,2.422,10.968,3.633,17.427,3.633,9.356,0,17.101-2.013,23.236-6.051,6.126-4.031,11.376-10.408,15.733-19.122,4.357-8.714,7.987-19.846,10.891-33.401l55.185-230.417h60.509l-55.185,229.934c-5.49,24.203-13.395,44.619-23.719,61.236-10.332,16.623-23.236,29.21-38.725,37.757-15.491,8.548-34.537,12.827-57.121,12.827Z" fill="#9146ff"/><path d="M936.448,473.544l79.388-330.138c12.261-3.223,24.687-5.725,37.274-7.503,12.587-1.772,26.141-2.662,40.663-2.662,19.362,0,35.654,2.986,48.89,8.954,13.231,5.977,23.236,14.605,30.014,25.898,6.776,11.301,10.165,25.497,10.165,42.598,0,14.522-2.104,28.969-6.292,43.325-4.199,14.364-11.301,28.002-21.3,40.903-10.007,12.913-23.719,24.69-41.147,35.338,5.811,15.172,10.726,30.904,14.765,47.198,4.031,16.299,7.42,32.433,10.165,48.406,2.74,15.973,4.6,31.875,5.568,47.682h-60.509c-1.62-14.198-3.555-28.477-5.808-42.841-2.261-14.356-4.926-28.56-7.989-42.598-3.069-14.038-6.859-27.667-11.376-40.903-2.261.323-4.279.484-6.049.484h-25.898l-30.014,125.859h-60.509ZM1038.588,299.277h10.649c14.84,0,27.509-3.386,38.001-10.165,10.483-6.776,18.638-16.051,24.446-27.833,5.808-11.777,8.714-25.248,8.714-40.422,0-8.061-1.377-14.84-4.116-20.33-2.745-5.485-6.701-9.598-11.86-12.343-5.164-2.737-11.459-4.114-18.879-4.114-2.261,0-5.006.166-8.23.484-3.229.323-7.26,1.133-12.1,2.419l-26.625,112.305Z" fill="#9146ff"/><path d="M1167.833,473.544c12.91-31.949,26.299-63.005,40.176-93.185,13.872-30.172,27.753-59.542,41.63-88.101,13.872-28.56,27.67-55.669,41.39-81.323,13.712-25.657,27.026-49.935,39.936-72.853h61.477c1.612,23.236,3.063,47.922,4.357,74.063,1.285,26.138,2.422,53.247,3.389,81.323s1.451,57.203,1.451,87.374-.968,61.079-2.905,92.702h-60.993c.97-10.967,1.772-22.669,2.422-35.095.641-12.421,1.285-25.732,1.935-39.936h-84.228c-5.808,13.878-11.298,27.106-16.457,39.693-5.167,12.587-9.524,24.372-13.071,35.338h-60.509ZM1279.17,349.137h63.898c.315-20.648.558-42.515.724-65.593.16-23.067.077-47.029-.241-71.885-11.945,23.888-23.318,47.524-34.128,70.917-10.817,23.401-20.9,45.586-30.255,66.561Z" fill="#9146ff"/><path d="M27.968,685.907v-112.794H0v-14.721h73.602v14.721h-28.336v112.794h-17.297Z" fill="#f1f1f1"/><path d="M115.739,688.116c-7.851,0-14.628-1.966-20.333-5.888-5.703-3.926-9.999-9.598-12.88-17.021-2.883-7.42-4.324-16.468-4.324-27.142,0-10.914,1.316-20.148,3.956-27.692,2.636-7.544,6.469-13.339,11.5-17.389,5.029-4.047,10.917-6.071,17.664-6.071,6.501,0,11.99,1.811,16.469,5.427,4.476,3.621,7.912,8.896,10.303,15.824,2.393,6.933,3.588,15.365,3.588,25.301,0,1.473-.032,2.977-.091,4.509-.064,1.534-.156,3.221-.276,5.062h-46.001c.12,9.446,2.084,16.866,5.888,22.262,3.801,5.399,9.629,8.097,17.48,8.097,3.064,0,6.101-.276,9.109-.829,3.004-.55,5.671-1.316,8.003-2.3l2.209,13.065c-3.436,1.595-6.993,2.789-10.672,3.588-3.681.796-7.544,1.197-11.593,1.197ZM95.499,630.706h29.808c.122-6.991-.368-12.697-1.471-17.112-1.104-4.418-2.731-7.666-4.877-9.753-2.148-2.084-4.877-3.127-8.188-3.127s-6.104,1.136-8.372,3.403c-2.271,2.272-3.988,5.645-5.152,10.121-1.168,4.478-1.749,9.969-1.749,16.468Z" fill="#f1f1f1"/><path d="M194.491,687.931c-7.608,0-14.048-1.932-19.321-5.794-5.276-3.865-9.264-9.537-11.961-17.021-2.7-7.481-4.047-16.623-4.047-27.418s1.379-19.962,4.14-27.507c2.76-7.544,6.808-13.311,12.144-17.297,5.335-3.986,11.745-5.98,19.228-5.98,3.432,0,6.685.307,9.752.921,3.066.614,5.888,1.595,8.465,2.941l-3.128,13.986c-1.964-.981-4.049-1.717-6.256-2.209-2.209-.487-4.48-.735-6.809-.735-6.379,0-11.316,2.792-14.812,8.374s-5.244,14.751-5.244,27.507c0,8.222.921,14.937,2.76,20.15s4.384,9.079,7.636,11.592c3.25,2.516,7.022,3.771,11.316,3.771,2.453,0,4.693-.182,6.716-.55,2.025-.368,3.956-1.106,5.796-2.209l2.393,13.8c-2.455,1.352-5.244,2.3-8.372,2.853-3.128.55-6.595.827-10.396.827Z" fill="#f1f1f1"/><path d="M230.922,685.907v-139.844l16.928-2.944v46.922c2.084-.857,4.416-1.501,6.993-1.932,2.575-.428,5.152-.644,7.728-.644,6.624,0,12.172,1.537,16.652,4.6,4.477,3.069,7.88,7.608,10.212,13.618,2.329,6.01,3.496,13.187,3.496,21.527v58.698h-16.743v-57.593c0-6.378-.553-11.47-1.657-15.274-1.103-3.801-2.852-6.591-5.243-8.371-2.393-1.778-5.675-2.668-9.844-2.668-1.229,0-2.485.064-3.772.182-1.288.124-2.64.34-4.049.644-1.411.307-2.668.708-3.772,1.197v81.881h-16.928Z" fill="#f1f1f1"/><path d="M325.132,712.405l-12.144-3.312c2.207-5.769,3.832-11.564,4.875-17.389,1.041-5.825,1.565-11.437,1.565-16.839,0-.857-.032-1.869-.093-3.035-.062-1.164-.091-2.361-.091-3.588s-.124-2.328-.368-3.312h17.296c.12,1.72.213,3.193.275,4.418.061,1.227.093,2.391.093,3.494,0,6.873-1.012,13.646-3.035,20.333-2.025,6.685-4.816,13.093-8.372,19.23Z" fill="#f1f1f1"/><path d="M419.707,687.195c-5.031,0-9.908-.216-14.628-.644-4.725-.431-9.6-1.133-14.628-2.115v-124.203c4.784-1.106,9.597-1.932,14.444-2.485,4.845-.553,9.844-.829,14.996-.829,11.408,0,20.884,2.424,28.429,7.271s13.249,12.114,17.112,21.804c3.865,9.692,5.797,21.712,5.797,36.066,0,14.232-1.964,26.16-5.888,35.789-3.928,9.631-9.753,16.927-17.481,21.895-7.728,4.968-17.112,7.453-28.152,7.453ZM420.628,672.107c11.04,0,19.165-4.078,24.38-12.236,5.212-8.158,7.821-20.761,7.821-37.813,0-17.297-2.608-29.931-7.821-37.907-5.215-7.973-13.281-11.959-24.196-11.959-2.456,0-4.693.064-6.716.182-2.025.124-4.14.431-6.349.921v97.891c2.084.368,4.14.616,6.165.735,2.024.124,4.26.185,6.716.185Z" fill="#f1f1f1"/><path d="M527.534,688.116c-7.851,0-14.628-1.966-20.333-5.888-5.703-3.926-9.999-9.598-12.88-17.021-2.883-7.42-4.324-16.468-4.324-27.142,0-10.914,1.316-20.148,3.956-27.692,2.636-7.544,6.469-13.339,11.5-17.389,5.029-4.047,10.917-6.071,17.664-6.071,6.501,0,11.99,1.811,16.469,5.427,4.476,3.621,7.912,8.896,10.303,15.824,2.393,6.933,3.588,15.365,3.588,25.301,0,1.473-.032,2.977-.091,4.509-.064,1.534-.156,3.221-.276,5.062h-46.001c.12,9.446,2.084,16.866,5.888,22.262,3.801,5.399,9.629,8.097,17.48,8.097,3.064,0,6.101-.276,9.109-.829,3.004-.55,5.671-1.316,8.003-2.3l2.209,13.065c-3.436,1.595-6.993,2.789-10.672,3.588-3.681.796-7.544,1.197-11.593,1.197ZM507.293,630.706h29.808c.122-6.991-.368-12.697-1.471-17.112-1.104-4.418-2.731-7.666-4.877-9.753-2.148-2.084-4.877-3.127-8.188-3.127s-6.104,1.136-8.372,3.403c-2.271,2.272-3.988,5.645-5.152,10.121-1.168,4.478-1.749,9.969-1.749,16.468Z" fill="#f1f1f1"/><path d="M590.645,688.116c-4.296,0-8.404-.525-12.328-1.565-3.928-1.042-7.116-2.115-9.569-3.221l3.128-13.615c2.697,1.227,5.641,2.27,8.833,3.127,3.189.86,6.072,1.288,8.649,1.288,4.537,0,8.064-1.225,10.58-3.68,2.513-2.452,3.772-5.582,3.772-9.385,0-2.695-.46-4.995-1.379-6.9-.921-1.899-2.456-3.832-4.6-5.794-2.148-1.963-5.308-4.169-9.477-6.624-4.172-2.455-7.576-5.029-10.212-7.73-2.64-2.695-4.571-5.612-5.796-8.741-1.229-3.127-1.841-6.776-1.841-10.947,0-5.272,1.165-9.996,3.497-14.168,2.328-4.169,5.612-7.42,9.844-9.753,4.231-2.328,9.168-3.494,14.812-3.494,3.924,0,7.544.337,10.856,1.012s5.948,1.504,7.912,2.483l-2.577,13.433c-2.575-1.103-5.123-1.899-7.636-2.391-2.516-.489-4.94-.735-7.268-.735-4.172,0-7.36,1.075-9.569,3.221-2.207,2.145-3.312,5.123-3.312,8.924,0,2.577.521,4.846,1.565,6.806,1.041,1.966,2.697,3.898,4.968,5.797,2.268,1.905,5.305,4.02,9.108,6.347,3.926,2.458,7.237,5.031,9.937,7.73,2.697,2.698,4.691,5.675,5.98,8.924,1.288,3.251,1.932,6.964,1.932,11.133,0,5.642-1.259,10.58-3.772,14.812-2.516,4.232-6.011,7.575-10.488,10.03-4.478,2.452-9.661,3.68-15.547,3.68Z" fill="#f1f1f1"/><path d="M648.421,569.248c-2.944,0-5.46-1.012-7.544-3.035-2.087-2.024-3.128-4.694-3.128-8.006s1.041-5.98,3.128-8.003c2.084-2.024,4.6-3.035,7.544-3.035,3.066,0,5.673,1.012,7.821,3.035,2.145,2.024,3.219,4.691,3.219,8.003s-1.074,5.982-3.219,8.006c-2.148,2.024-4.755,3.035-7.821,3.035ZM640.325,685.907v-96.788h16.928v96.788h-16.928Z" fill="#f1f1f1"/><path d="M709.51,720.499c-4.784,0-9.171-.368-13.156-1.103-3.988-.735-7.636-1.963-10.949-3.68l3.313-13.986c2.944,1.349,5.948,2.422,9.016,3.221,3.064.796,6.192,1.197,9.384,1.197,4.292-.124,7.88-.921,10.764-2.394,2.881-1.471,5.06-3.862,6.532-7.177,1.472-3.312,2.207-7.542,2.207-12.695v-5.521c-1.718.984-3.803,1.78-6.256,2.391-2.455.616-5.031.921-7.728.921-6.748,0-12.603-1.623-17.572-4.877-4.968-3.248-8.772-8.401-11.408-15.456-2.64-7.052-3.956-16.1-3.956-27.139,0-9.814,1.288-18.218,3.863-25.209,2.577-6.991,6.625-12.357,12.144-16.1,5.521-3.74,12.45-5.612,20.793-5.612,4.784,0,9.32.368,13.616,1.103,4.292.735,8.769,1.78,13.431,3.129v90.161c0,12.512-2.823,22.11-8.463,28.798-5.644,6.685-14.168,10.027-25.577,10.027ZM715.399,667.321c2.452,0,4.629-.274,6.532-.827,1.901-.553,3.404-1.379,4.507-2.485v-60.352c-1.227-.614-2.7-1.106-4.416-1.473-1.718-.368-3.619-.55-5.703-.55-3.804,0-7.148.951-10.028,2.85-2.885,1.905-5.124,5.217-6.716,9.936-1.596,4.725-2.393,11.381-2.393,19.965,0,6.748.489,12.299,1.472,16.653.98,4.354,2.361,7.699,4.14,10.027,1.778,2.333,3.74,3.956,5.888,4.877,2.145.921,4.384,1.379,6.716,1.379Z" fill="#f1f1f1"/><path d="M770.968,685.907v-94.026c4.661-1.473,9.352-2.577,14.077-3.312,4.72-.735,9.597-1.106,14.628-1.106,7.728,0,14.045,1.413,18.952,4.232,4.906,2.825,8.524,7.177,10.856,13.065,2.329,5.888,3.496,13.372,3.496,22.448v58.698h-16.743v-57.593c0-6.502-.585-11.652-1.749-15.456-1.168-3.801-2.976-6.563-5.428-8.282-2.455-1.714-5.828-2.574-10.121-2.574-1.72,0-3.559.122-5.519.368-1.964.246-3.804.735-5.521,1.471v82.067h-16.928Z" fill="#f1f1f1"/><path d="M916.33,687.931c-5.521,0-10.397-.89-14.628-2.668-4.232-1.778-7.821-4.199-10.765-7.268-2.944-3.066-5.183-6.624-6.716-10.674-1.536-4.047-2.3-8.34-2.3-12.88,0-5.521.705-10.425,2.116-14.721,1.409-4.29,3.709-8.399,6.9-12.327,3.189-3.926,7.177-7.73,11.961-11.409-3.681-5.15-6.532-10.088-8.556-14.812-2.025-4.722-3.037-9.966-3.037-15.733,0-9.076,2.393-16.252,7.177-21.527s11.408-7.912,19.873-7.912c5.763,0,10.517,1.103,14.261,3.312,3.74,2.206,6.56,5.335,8.462,9.383,1.902,4.05,2.853,8.833,2.853,14.353,0,4.664-.86,9.079-2.577,13.247-1.72,4.172-4.138,8.097-7.268,11.777-3.127,3.68-6.839,7.116-11.133,10.303l21.712,28.706c1.473-4.169,2.637-8.587,3.497-13.247.857-4.661,1.471-9.629,1.841-14.906l13.983,1.656c-.492,7.24-1.504,14.201-3.035,20.886-1.537,6.687-3.652,12.852-6.347,18.492,2.574,3.804,5.059,7.884,7.45,12.236,2.391,4.357,4.691,8.924,6.9,13.709h-16.377c-.981-2.328-2.115-4.57-3.403-6.715s-2.668-4.384-4.141-6.718c-3.926,5.031-8.404,8.863-13.43,11.5-5.031,2.637-10.121,3.956-15.272,3.956ZM917.065,673.763c3.924,0,7.573-1.103,10.949-3.312,3.373-2.209,6.469-5.153,9.291-8.833l-26.68-35.513c-2.824,2.455-5.183,5.059-7.084,7.821-1.903,2.759-3.312,5.642-4.232,8.647-.921,3.008-1.379,6.347-1.379,10.03,0,4.293.796,8.034,2.391,11.224,1.592,3.19,3.833,5.642,6.716,7.359,2.881,1.72,6.224,2.577,10.028,2.577ZM915.225,608.258c3.064-2.33,5.64-4.785,7.727-7.362,2.084-2.577,3.71-5.272,4.877-8.094,1.164-2.823,1.747-5.949,1.747-9.385,0-3.312-.522-6.04-1.562-8.188-1.045-2.145-2.424-3.771-4.141-4.877-1.72-1.103-3.743-1.656-6.071-1.656-3.928,0-6.932,1.379-9.016,4.141-2.087,2.759-3.128,6.9-3.128,12.421,0,2.33.368,4.783,1.103,7.359.737,2.577,1.869,5.153,3.404,7.73,1.533,2.574,3.221,5.214,5.06,7.912Z" fill="#f1f1f1"/><path d="M1012.928,685.907v-127.515h58.145v14.721h-40.848v38.824h36.983v14.353h-36.983v44.895h43.792v14.721h-61.09Z" fill="#f1f1f1"/><path d="M1109.716,685.907c-2.206-5.764-4.478-12.33-6.806-19.689-2.333-7.359-4.6-15.332-6.809-23.921-2.209-8.584-4.357-17.325-6.441-26.221-2.087-8.891-3.926-17.875-5.518-26.957h17.662c1.225,8.097,2.698,16.653,4.418,25.671,1.717,9.015,3.649,17.878,5.794,26.586,2.145,8.714,4.326,16.808,6.532,24.289,1.841-5.64,3.558-11.652,5.153-18.03,1.592-6.378,3.129-12.91,4.6-19.597,1.473-6.685,2.789-13.308,3.956-19.874,1.164-6.56,2.176-12.907,3.035-19.045h17.112c-1.595,9.081-3.375,18.066-5.335,26.957-1.963,8.896-4.111,17.637-6.438,26.221-2.333,8.589-4.664,16.562-6.994,23.921-2.33,7.359-4.6,13.925-6.806,19.689h-17.115Z" fill="#f1f1f1"/><path d="M1197.671,688.116c-7.237,0-13.402-1.966-18.492-5.888-5.092-3.926-8.957-9.662-11.592-17.206-2.64-7.544-3.956-16.772-3.956-27.692,0-10.671,1.316-19.78,3.956-27.324,2.635-7.544,6.499-13.278,11.592-17.203,5.089-3.926,11.254-5.888,18.492-5.888,7.113,0,13.217,1.963,18.309,5.888,5.089,3.926,8.985,9.659,11.685,17.203,2.695,7.544,4.047,16.653,4.047,27.324,0,10.92-1.352,20.148-4.047,27.692-2.701,7.544-6.532,13.281-11.5,17.206-4.971,3.923-11.133,5.888-18.494,5.888ZM1197.671,673.395c3.68,0,6.745-1.316,9.2-3.956,2.452-2.637,4.293-6.593,5.521-11.868,1.225-5.275,1.841-12.02,1.841-20.242,0-7.973-.616-14.627-1.841-19.965-1.227-5.335-3.069-9.291-5.521-11.868-2.455-2.577-5.521-3.862-9.2-3.862-3.558,0-6.563,1.285-9.015,3.862-2.455,2.577-4.324,6.532-5.612,11.868-1.288,5.338-1.932,12.053-1.932,20.15,0,7.976.644,14.627,1.932,19.962,1.288,5.338,3.157,9.325,5.612,11.962,2.452,2.64,5.457,3.956,9.015,3.956Z" fill="#f1f1f1"/><path d="M1280.837,687.378c-5.888-.368-10.826-1.592-14.812-3.68-3.986-2.084-6.964-5.12-8.924-9.106-1.963-3.986-2.944-8.802-2.944-14.444v-114.085l16.745-2.944v116.844c0,4.296.921,7.544,2.762,9.753,1.838,2.206,4.843,3.494,9.015,3.862l-1.841,13.8Z" fill="#f1f1f1"/></svg>